<?xml version="1.0" encoding="utf-8"?>
<!-- Generator: Adobe Illustrator 18.1.1, SVG Export Plug-In . SVG Version: 6.00 Build 0)  -->
<!DOCTYPE svg PUBLIC "-//W3C//DTD SVG 1.1//EN" "http://www.w3.org/Graphics/SVG/1.1/DTD/svg11.dtd">
<svg version="1.1" xmlns="http://www.w3.org/2000/svg" xmlns:xlink="http://www.w3.org/1999/xlink" x="0px" y="0px"
	 viewBox="0 0 1280 720" enable-background="new 0 0 1280 720" xml:space="preserve">
<g id="base">
	<g>
		<path fill="#0071BC" d="M260.1,459h-98.3c-27.4,0-49.9-22.4-49.9-49.9v-98.3c0-27.4,22.4-49.9,49.9-49.9h98.3
			c27.4,0,49.9,22.4,49.9,49.9v98.3C310,436.6,287.6,459,260.1,459z"/>
		<path fill="#0071BC" d="M689.1,459h-98.3c-27.4,0-49.9-22.4-49.9-49.9v-98.3c0-27.4,22.4-49.9,49.9-49.9h98.3
			c27.4,0,49.9,22.4,49.9,49.9v98.3C739,436.6,716.6,459,689.1,459z"/>
		<path fill="#0071BC" d="M1098.1,459h-98.3c-27.4,0-49.9-22.4-49.9-49.9v-98.3c0-27.4,22.4-49.9,49.9-49.9h98.3
			c27.4,0,49.9,22.4,49.9,49.9v98.3C1148,436.6,1125.6,459,1098.1,459z"/>
	</g>
</g>
<g id="arrows">
	<g id="_x31_">
		<g>
			<path fill="none" stroke="#000000" stroke-width="2" stroke-miterlimit="10" d="M327,362l20.2-4.6
				c49.9-11.4,101.8-11.7,151.8-0.8l16.6,3.6"/>
			<g>
				<polygon points="512.6,365.6 524,362 515.1,353.9 				"/>
			</g>
		</g>
	</g>
	<g id="_x32_">
		<g>
			<path fill="none" stroke="#000000" stroke-width="2" stroke-miterlimit="10" d="M746,362l20.2-4.6
				c49.9-11.4,101.8-11.7,151.8-0.8l16.6,3.6"/>
			<g>
				<polygon points="931.6,365.6 943,362 934.1,353.9 				"/>
			</g>
		</g>
	</g>
	<g id="_x33_">
		<g>
			<path fill="none" stroke="#000000" stroke-width="4.1003" stroke-miterlimit="10" d="M1065,496.6l-40.9,2.2
				c-27.7,1.5-54.7,9-79.3,21.9c-195.9,102-386.9,109.4-560.9,8c-30.1-17.5-63.8-27.8-98.6-29.6l-30.6-1.6"/>
			<g>
				<polygon points="258.9,485.4 237,496.6 257.6,509.9 				"/>
			</g>
		</g>
	</g>
</g>
<g id="info">
	<g>
		<path fill="#FFFFFF" d="M198.6,371.1l-6.1,18.6h-7.9l20.1-59.1h9.2l20.2,59.1h-8.2l-6.3-18.6H198.6z M217.9,365.2l-5.8-17
			c-1.3-3.9-2.2-7.4-3.1-10.8h-0.2c-0.9,3.5-1.8,7.1-3,10.7l-5.8,17.1H217.9z"/>
	</g>
	<g>
		<path fill="#FFFFFF" d="M620,331.4c3.3-0.7,8.6-1.2,14-1.2c7.6,0,12.5,1.3,16.2,4.3c3.1,2.3,4.9,5.8,4.9,10.4
			c0,5.7-3.8,10.7-10,13v0.2c5.6,1.4,12.2,6.1,12.2,14.8c0,5.1-2,9-5,11.8c-4.1,3.8-10.8,5.5-20.4,5.5c-5.3,0-9.3-0.4-11.8-0.7
			V331.4z M627.6,355.6h6.9c8.1,0,12.8-4.2,12.8-9.9c0-6.9-5.3-9.7-13-9.7c-3.5,0-5.5,0.3-6.8,0.5V355.6z M627.6,383.9
			c1.5,0.3,3.7,0.4,6.4,0.4c7.9,0,15.2-2.9,15.2-11.5c0-8.1-6.9-11.4-15.3-11.4h-6.3V383.9z"/>
	</g>
	<g>
		<path fill="#FFFFFF" d="M1070.9,387.8c-2.8,1.4-8.4,2.8-15.6,2.8c-16.7,0-29.2-10.5-29.2-29.9c0-18.5,12.5-31.1,30.9-31.1
			c7.4,0,12,1.6,14,2.6l-1.8,6.2c-2.9-1.4-7-2.5-11.9-2.5c-13.9,0-23.1,8.9-23.1,24.4c0,14.5,8.3,23.8,22.7,23.8
			c4.7,0,9.4-1,12.5-2.5L1070.9,387.8z"/>
	</g>
	<g>
	</g>
	<g>
	</g>
	<g>
	</g>
	<g>
	</g>
	<g>
	</g>
	<g>
	</g>
	<g>
	</g>
	<g>
	</g>
	<g>
	</g>
	<g>
	</g>
	<g>
	</g>
	<g>
	</g>
	<g>
	</g>
	<g>
	</g>
	<g>
	</g>
	<g>
	</g>
</g>
</svg>
