<?xml version="1.0" encoding="utf-8"?>
<!-- Generator: Adobe Illustrator 18.1.1, SVG Export Plug-In . SVG Version: 6.00 Build 0)  -->
<!DOCTYPE svg PUBLIC "-//W3C//DTD SVG 1.1//EN" "http://www.w3.org/Graphics/SVG/1.1/DTD/svg11.dtd">
<svg version="1.1" xmlns="http://www.w3.org/2000/svg" xmlns:xlink="http://www.w3.org/1999/xlink" x="0px" y="0px"
	 viewBox="0 0 1280 720" enable-background="new 0 0 1280 720" xml:space="preserve">
<g id="base">
	<g>
		<path fill="#0071BC" d="M260.1,459h-98.3c-27.4,0-49.9-22.4-49.9-49.9v-98.3c0-27.4,22.4-49.9,49.9-49.9h98.3
			c27.4,0,49.9,22.4,49.9,49.9v98.3C310,436.6,287.6,459,260.1,459z"/>
		<path fill="#0071BC" d="M689.1,459h-98.3c-27.4,0-49.9-22.4-49.9-49.9v-98.3c0-27.4,22.4-49.9,49.9-49.9h98.3
			c27.4,0,49.9,22.4,49.9,49.9v98.3C739,436.6,716.6,459,689.1,459z"/>
		<path fill="#0071BC" d="M1098.1,459h-98.3c-27.4,0-49.9-22.4-49.9-49.9v-98.3c0-27.4,22.4-49.9,49.9-49.9h98.3
			c27.4,0,49.9,22.4,49.9,49.9v98.3C1148,436.6,1125.6,459,1098.1,459z"/>
	</g>
</g>
<g id="arrows">
	<g id="_x31_">
		<g>
			<path fill="none" stroke="#000000" stroke-width="2" stroke-miterlimit="10" d="M327,362l20.2-4.6
				c49.9-11.4,101.8-11.7,151.8-0.8l16.6,3.6"/>
			<g>
				<polygon points="512.6,365.6 524,362 515.1,353.9 				"/>
			</g>
		</g>
	</g>
	<g id="_x32_">
		<g>
			<path fill="none" stroke="#000000" stroke-width="2" stroke-miterlimit="10" d="M746,362l20.2-4.6
				c49.9-11.4,101.8-11.7,151.8-0.8l16.6,3.6"/>
			<g>
				<polygon points="931.6,365.6 943,362 934.1,353.9 				"/>
			</g>
		</g>
	</g>
	<g id="_x33_">
		<g>
			<path fill="none" stroke="#000000" stroke-width="4.1003" stroke-miterlimit="10" d="M1065,496.6l-40.9,2.2
				c-27.7,1.5-54.7,9-79.3,21.9c-195.9,102-386.9,109.4-560.9,8c-30.1-17.5-63.8-27.8-98.6-29.6l-30.6-1.6"/>
			<g>
				<polygon points="258.9,485.4 237,496.6 257.6,509.9 				"/>
			</g>
		</g>
	</g>
</g>
</svg>
