<?xml version="1.0" encoding="utf-8"?>
<!-- Generator: Adobe Illustrator 18.1.1, SVG Export Plug-In . SVG Version: 6.00 Build 0)  -->
<!DOCTYPE svg PUBLIC "-//W3C//DTD SVG 1.1//EN" "http://www.w3.org/Graphics/SVG/1.1/DTD/svg11.dtd">
<svg version="1.1" id="Layer_1" xmlns="http://www.w3.org/2000/svg" xmlns:xlink="http://www.w3.org/1999/xlink" x="0px" y="0px"
	 viewBox="0 0 628.9 523" enable-background="new 0 0 628.9 523" xml:space="preserve">
<polyline fill="none" stroke="#000000" stroke-width="4.2334" stroke-linecap="round" stroke-linejoin="round" stroke-miterlimit="10" points="
	55,221 55,484 550,484 550,221 55,221 "/>
<polyline fill="none" stroke="#000000" stroke-width="1.4117" stroke-linecap="round" stroke-linejoin="round" stroke-miterlimit="10" points="
	373.5,330 373.5,484 467.5,484 467.5,330 373.5,330 "/>
<g>
	
		<line fill="none" stroke="#000000" stroke-width="0.9762" stroke-linecap="round" stroke-linejoin="round" stroke-miterlimit="10" x1="156" y1="333.3" x2="156" y2="415.3"/>
	
		<line fill="none" stroke="#000000" stroke-width="0.9762" stroke-linecap="round" stroke-linejoin="round" stroke-miterlimit="10" x1="116.3" y1="375.3" x2="195.3" y2="375.3"/>
	
		<path fill="none" stroke="#000000" stroke-width="0.9762" stroke-linecap="round" stroke-linejoin="round" stroke-miterlimit="10" d="
		M141.7,331.9c0,0-23.2,40.8-23.2,55.8s11.1,24.3,11.1,24.3l-13.9,5.7"/>
	
		<path fill="none" stroke="#000000" stroke-width="1.0026" stroke-linecap="round" stroke-linejoin="round" stroke-miterlimit="10" d="
		M164.4,331.6c0,0,24.5,40.8,24.5,55.8s-11.7,24.3-11.7,24.3l14.7,5.7"/>
	
		<polyline fill="none" stroke="#000000" stroke-width="0.9762" stroke-linecap="round" stroke-linejoin="round" stroke-miterlimit="10" points="
		115.8,331.3 115.8,417.3 196.3,417.3 196.3,331.3 115.8,331.3 	"/>
</g>
<g>
	
		<line fill="none" stroke="#000000" stroke-width="0.9762" stroke-linecap="round" stroke-linejoin="round" stroke-miterlimit="10" x1="272.4" y1="333.3" x2="272.4" y2="415.3"/>
	
		<line fill="none" stroke="#000000" stroke-width="0.9762" stroke-linecap="round" stroke-linejoin="round" stroke-miterlimit="10" x1="232.7" y1="375.3" x2="311.7" y2="375.3"/>
	
		<path fill="none" stroke="#000000" stroke-width="0.9762" stroke-linecap="round" stroke-linejoin="round" stroke-miterlimit="10" d="
		M258.1,331.9c0,0-23.2,40.8-23.2,55.8S246,412,246,412l-13.9,5.7"/>
	
		<path fill="none" stroke="#000000" stroke-width="1.0026" stroke-linecap="round" stroke-linejoin="round" stroke-miterlimit="10" d="
		M280.8,331.6c0,0,24.5,40.8,24.5,55.8s-11.7,24.3-11.7,24.3l14.7,5.7"/>
	
		<polyline fill="none" stroke="#000000" stroke-width="0.9762" stroke-linecap="round" stroke-linejoin="round" stroke-miterlimit="10" points="
		232.2,331.3 232.2,417.3 312.7,417.3 312.7,331.3 232.2,331.3 	"/>
</g>
<g>
	
		<line fill="none" stroke="#000000" stroke-width="0.7074" stroke-linecap="round" stroke-linejoin="round" stroke-miterlimit="10" x1="249.5" y1="129.7" x2="249.5" y2="189.1"/>
	
		<line fill="none" stroke="#000000" stroke-width="0.7074" stroke-linecap="round" stroke-linejoin="round" stroke-miterlimit="10" x1="220.7" y1="160.1" x2="278" y2="160.1"/>
	
		<path fill="none" stroke="#000000" stroke-width="0.7074" stroke-linecap="round" stroke-linejoin="round" stroke-miterlimit="10" d="
		M239.1,128.7c0,0-16.8,29.5-16.8,40.4c0,10.9,8,17.6,8,17.6l-10.1,4.1"/>
	
		<path fill="none" stroke="#000000" stroke-width="0.7265" stroke-linecap="round" stroke-linejoin="round" stroke-miterlimit="10" d="
		M255.6,128.5c0,0,17.8,29.5,17.8,40.4c0,10.9-8.5,17.6-8.5,17.6l10.7,4.1"/>
	
		<polyline fill="none" stroke="#000000" stroke-width="0.7074" stroke-linecap="round" stroke-linejoin="round" stroke-miterlimit="10" points="
		220.4,128.2 220.4,190.6 278.7,190.6 278.7,128.2 220.4,128.2 	"/>
</g>
<g>
	
		<line fill="none" stroke="#000000" stroke-width="0.7074" stroke-linecap="round" stroke-linejoin="round" stroke-miterlimit="10" x1="333.8" y1="129.7" x2="333.8" y2="189.1"/>
	
		<line fill="none" stroke="#000000" stroke-width="0.7074" stroke-linecap="round" stroke-linejoin="round" stroke-miterlimit="10" x1="305.1" y1="160.1" x2="362.3" y2="160.1"/>
	
		<path fill="none" stroke="#000000" stroke-width="0.7074" stroke-linecap="round" stroke-linejoin="round" stroke-miterlimit="10" d="
		M323.5,128.7c0,0-16.8,29.5-16.8,40.4c0,10.9,8,17.6,8,17.6l-10.1,4.1"/>
	
		<path fill="none" stroke="#000000" stroke-width="0.7265" stroke-linecap="round" stroke-linejoin="round" stroke-miterlimit="10" d="
		M339.9,128.5c0,0,17.8,29.5,17.8,40.4c0,10.9-8.5,17.6-8.5,17.6l10.7,4.1"/>
	
		<polyline fill="none" stroke="#000000" stroke-width="0.7074" stroke-linecap="round" stroke-linejoin="round" stroke-miterlimit="10" points="
		304.7,128.2 304.7,190.6 363,190.6 363,128.2 304.7,128.2 	"/>
</g>
<polyline fill="none" stroke="#000000" stroke-width="4" stroke-linecap="round" stroke-linejoin="round" stroke-miterlimit="10" points="
	34.7,235 292.6,49.6 571.4,232.9 "/>
</svg>
