<?xml version="1.0" encoding="utf-8"?>
<!-- Generator: Adobe Illustrator 18.1.1, SVG Export Plug-In . SVG Version: 6.00 Build 0)  -->
<!DOCTYPE svg PUBLIC "-//W3C//DTD SVG 1.1//EN" "http://www.w3.org/Graphics/SVG/1.1/DTD/svg11.dtd">
<svg version="1.1" xmlns="http://www.w3.org/2000/svg" xmlns:xlink="http://www.w3.org/1999/xlink" x="0px" y="0px"
	 viewBox="0 0 1280 720" enable-background="new 0 0 1280 720" xml:space="preserve">
<g id="stroke1">
	<path fill="none" stroke="#000000" stroke-miterlimit="10" d="M243.1,490c-41.1,7.2-84.7,3.5-122.1-14.9
		c-15.6-7.7-30.4-18.3-39-33.4s-9.5-35.4,1.2-49.1c7.8-10,20.5-15.2,33.1-16.7c2.4-0.3,5.2-0.4,7.1,1.3c1.2,1.1,1.8,2.6,2.2,4.2
		c4.5,15.7-1.2,33.8,6.4,48.2c5.5,10.5,16.9,16.5,28,20.4c9.7,3.4,19.8,5.7,30,6.9c2.6,0.3,5.3,0.5,7.7-0.5
		c6.7-2.9,6.3-12.6,4.1-19.6c-10.8-34.8-35.6-63.5-48.9-97.4c-1-2.5-1.9-5.4-0.7-7.8c1-2,3.1-3.1,5.1-4c7.9-3.3,16.7-4.1,25.2-4.9
		c26.2-2.4,54.2-4.4,77.5,7.9c10.1,5.3,19.4,14.1,21,25.4c1.9,13.8-7.9,26.2-12.3,39.4c-1,3-1.7,6.4-0.3,9.3
		c1.8,3.6,6.2,4.8,10.1,5.7c9.8,2.2,19.7,4.3,29.7,3.9s20.3-3.7,27.2-11c7.3-7.7,9.9-18.9,10.5-29.5c0.4-6,0.9-13.1,6.1-16
		c2.6-1.5,5.7-1.5,8.7-1.1c11.1,1.4,21.4,7.3,29.3,15.3c14.4,14.4,21.6,34.4,26.2,54.2c4.8,20.5,7.3,42.5-0.3,62.2
		c-4.1,10.5-12.4,20.8-23.6,21.6c-11.9,0.8-21.5-8.8-30-17.2c-10.2-10-21.2-19.2-32.9-27.4c-9.1-6.4-18.9-12.3-29.9-14.5
		c-10.9-2.2-23.3,0-31.1,8c-8.3,8.5-9.9,21.6-9.4,33.5c0.5,11.9,2.5,24.1-0.4,35.6c-3,12-11.3,22.3-21.3,29.6s-21.6,12.1-33.4,16.1"
		/>
</g>
<g id="cube">
	<polyline fill="none" stroke="#000000" stroke-width="1.1354" stroke-miterlimit="10" points="592.1,345.3 503.6,299.6 
		503.6,175.4 592.1,221.1 592.1,345.3 	"/>
	<polyline fill="none" stroke="#000000" stroke-width="1.1354" stroke-miterlimit="10" points="592.9,345.3 592.9,221.1 
		681.4,175.4 681.4,299.6 592.9,345.3 	"/>
	<polyline fill="none" stroke="#000000" stroke-width="1.1354" stroke-miterlimit="10" points="678.3,297.8 600.1,257.3 600.1,133 
		681,175 681,299.2 678.3,297.8 	"/>
	<polyline fill="none" stroke="#000000" stroke-width="1.1354" stroke-miterlimit="10" points="503.8,299.2 503.8,175 599.9,133.1 
		599.9,257.3 503.8,299.2 	"/>
</g>
<g id="form">
	<polyline fill="none" stroke="#000000" stroke-width="0.8969" stroke-miterlimit="10" points="757.2,473.6 773.4,472.3 
		779.8,449.4 769.9,427.8 753.7,429.1 747.3,452 757.2,473.6 523.3,632.7 487.2,576.7 487.4,574.7 495.7,510.6 540.3,500.5 
		576.4,556.5 568,622.6 523.3,632.7 	"/>
	<line fill="none" stroke="#000000" stroke-width="0.5822" stroke-miterlimit="10" x1="540.3" y1="500.5" x2="769.9" y2="427.8"/>
	<line fill="none" stroke="#000000" stroke-width="0.5822" stroke-miterlimit="10" x1="779.8" y1="449.4" x2="576.4" y2="556.5"/>
	<line fill="none" stroke="#000000" stroke-width="0.5822" stroke-miterlimit="10" x1="773.4" y1="472.3" x2="568" y2="622.6"/>
	<line fill="none" stroke="#000000" stroke-width="0.8969" stroke-miterlimit="10" x1="747.3" y1="452" x2="487.4" y2="574.7"/>
	<line fill="none" stroke="#000000" stroke-width="0.8969" stroke-miterlimit="10" x1="753.7" y1="429.1" x2="495.7" y2="510.6"/>
</g>
<g id="stroke2">
	<path fill="none" stroke="#000000" stroke-miterlimit="10" d="M918.2,395.8l73.3-128.2l111.5,94.7l-108.4,48.1l6.9-65.6l-26.7,28.2
		l-16.8,74l64.1-16.8l77.9-38.9l22.9-45l-72.5-73.3l-51.1-43.5l184-67.9L1107.5,279l44.3,58.8l-1.5,48.1l-54.2,33.6l-44.3,32.1
		L980,504.2l-51.9-32.1l-11.5,88.5l150.4-30.5c0,0,27.5-15.3,31.3-15.3s32.8,71,32.8,71L1009,614.1l-39.7-30.5l-66.4,16.8
		c0,0-6.1-67.9-6.1-72.5c0-4.6-3.1-71.8-3.1-71.8l44.3-32.8l-23.7-17.6"/>
</g>
</svg>
